<svg width="10" height="11" viewBox="0 0 10 11" fill="none" xmlns="http://www.w3.org/2000/svg">
<path d="M3.45584 4.58814C3.45584 3.63788 4.22617 2.86755 5.17643 2.86755C6.12668 2.86755 6.89702 3.63788 6.89702 4.58814C6.89702 5.53839 6.12668 6.30872 5.17643 6.30872C4.22617 6.30872 3.45584 5.53839 3.45584 4.58814Z" fill="#FF0000"/>
<path fill-rule="evenodd" clip-rule="evenodd" d="M0.821245 3.99381C1.00317 1.78672 2.84753 0.0881348 5.06211 0.0881348H5.29078C7.50535 0.0881348 9.34971 1.78672 9.53164 3.99381C9.62959 5.18213 9.26253 6.36208 8.50777 7.28513L5.97026 10.3884C5.55998 10.8902 4.7929 10.8902 4.38262 10.3884L1.84512 7.28513C1.09036 6.36208 0.723294 5.18213 0.821245 3.99381ZM5.17643 2.07343C3.78759 2.07343 2.66172 3.1993 2.66172 4.58814C2.66172 5.97697 3.78759 7.10284 5.17643 7.10284C6.56526 7.10284 7.69113 5.97697 7.69113 4.58814C7.69113 3.1993 6.56526 2.07343 5.17643 2.07343Z" fill="#FF0000"/>
</svg>
