<svg width="29" height="29" viewBox="0 0 29 29" fill="none" xmlns="http://www.w3.org/2000/svg">
<path fill-rule="evenodd" clip-rule="evenodd" d="M2.6392 25.7758C2.54033 26.1347 2.86717 26.4659 3.22731 26.3718L8.79452 24.9177C10.5519 25.8696 12.5304 26.3753 14.5448 26.3753H14.5508C21.1797 26.3753 26.5833 21.0029 26.5833 14.3991C26.5833 11.1984 25.3339 8.18792 23.0626 5.92709C20.7912 3.66637 17.7726 2.41699 14.5507 2.41699C7.9219 2.41699 2.51827 7.7893 2.51827 14.3932C2.51752 16.4941 3.07205 18.5582 4.12618 20.3783L2.6392 25.7758ZM10.7372 8.66389C10.9583 8.66982 11.2034 8.68177 11.4366 9.1994C11.5912 9.54399 11.8517 10.1784 12.0639 10.6951C12.229 11.0972 12.3649 11.4282 12.3989 11.4959C12.4766 11.6505 12.5244 11.829 12.4228 12.0372C12.4108 12.0618 12.3995 12.0852 12.3886 12.1079C12.3071 12.277 12.2491 12.3974 12.112 12.5548C12.0556 12.6195 11.9969 12.6905 11.9384 12.7612C11.8356 12.8855 11.7333 13.009 11.6457 13.0963C11.4903 13.2508 11.3289 13.4175 11.5082 13.7269C11.6876 14.0362 12.3152 15.0536 13.2417 15.8746C14.2378 16.7614 15.1039 17.1351 15.5418 17.324C15.6268 17.3607 15.6956 17.3904 15.7462 17.4155C16.0571 17.5702 16.2423 17.5464 16.4216 17.3382C16.601 17.1299 17.1987 16.4338 17.408 16.1245C17.6112 15.8152 17.8204 15.8628 18.1073 15.9698C18.3942 16.0769 19.9244 16.8265 20.2352 16.9812C20.2966 17.0118 20.3541 17.0393 20.4074 17.0649C20.6236 17.1686 20.7706 17.2391 20.833 17.3441C20.9107 17.475 20.9106 18.0938 20.6536 18.8196C20.3907 19.5454 19.1234 20.2415 18.5496 20.295C18.4953 20.3002 18.4412 20.3067 18.3856 20.3134C17.8597 20.377 17.1921 20.4578 14.8137 19.5216C11.883 18.3691 9.94847 15.5098 9.55735 14.9317C9.52647 14.886 9.50521 14.8546 9.49384 14.8394L9.48723 14.8305C9.30928 14.5924 8.22063 13.1357 8.22063 11.6328C8.22063 10.1948 8.92898 9.44618 9.25208 9.10472C9.27255 9.08308 9.29148 9.06307 9.30858 9.04463C9.59545 8.7353 9.93025 8.65797 10.1394 8.65797C10.3487 8.65797 10.5579 8.65797 10.7372 8.66389Z" fill="#323B48"/>
</svg>
